<svg
  xmlns="http://www.w3.org/2000/svg"
  width="24"
  height="24"
  viewBox="0 0 24 24"
  fill="none"
  stroke="currentColor"
  stroke-width="2"
  stroke-linecap="round"
  stroke-linejoin="round"
>
  <path d="M1.5 12C1.5 6.201 6.201 1.5 12 1.5s10.5 4.701 10.5 10.5 -4.701 10.5 -10.5 10.5S1.5 17.799 1.5 12" />
  <path d="m18.011 9.575 -1.521 -1.449 -5.287 5.55c-0.251 0.263 -0.42 0.338 -0.703 0.398a1.275 1.275 0 0 1 -0.776 -0.081 1.425 1.425 0 0 1 -0.628 -0.544 1.605 1.605 0 0 1 -0.247 -0.859H6.75a3.75 3.75 0 0 0 0.575 1.987 3.525 3.525 0 0 0 1.561 1.342 3.375 3.375 0 0 0 2.042 0.21c0.664 -0.138 1.225 -0.407 1.795 -1.004z" />
</svg>
