<svg width="24" height="24" viewBox="0 0 24 24" fill="none" xmlns="http://www.w3.org/2000/svg">
  <path fill-rule="evenodd" clip-rule="evenodd" d="M0 12C0 5.373 5.373 0 12 0s12 5.373 12 12 -5.373 12 -12 12S0 18.627 0 12m12.827 3.571 6.042 -6.343 -1.738 -1.656 -6.042 6.343c-0.286 0.301 -0.48 0.387 -0.803 0.454a1.457 1.457 0 0 1 -0.886 -0.093 1.629 1.629 0 0 1 -0.717 -0.621 1.834 1.834 0 0 1 -0.282 -0.981H6c0 0.803 0.226 1.593 0.657 2.27a4.029 4.029 0 0 0 1.785 1.533 3.857 3.857 0 0 0 2.334 0.24c0.759 -0.158 1.401 -0.465 2.051 -1.147" fill="#000"/>
</svg>
