<svg
  xmlns="http://www.w3.org/2000/svg"
  width="24"
  height="24"
  viewBox="0 0 24 24"
  fill="none"
  stroke="currentColor"
  stroke-width="2"
  stroke-linecap="round"
  stroke-linejoin="round"
>
  <path d="M14.302 15.11a4.8 4.8 0 0 0 1.449-.231c-.443 1.656-1.688 3.515-3.278 4.896-2.534 2.204-6.494 3.9-8.206 1.244-1.282-1.99.08-5.357 3.207-7.318a13.5 13.5 0 0 1 2.848-1.338c.295 1.554 1.956 2.747 3.98 2.747" />
  <path d="M14.302 8.645a4.8 4.8 0 0 1 1.449.232c-.443-1.658-1.688-3.515-3.278-4.897C9.94 1.776 5.98.08 4.268 2.736c-1.282 1.99.08 5.358 3.207 7.318a13.5 13.5 0 0 0 2.848 1.338c.295-1.553 1.955-2.748 3.979-2.747" />
  <path d="m15.5 15.63 2.843 2.713h2.424l1.617 1.616" />
  <path d="m15.5 8.124 2.843-2.712h2.424l1.617-1.616" />
  <path d="M15.918 1.371v1.617L13.695 5.21" />
  <path d="M15.918 22.384v-1.617l-2.223-2.223" />
  <path d="M16.727 11.877c0 1.786.904 3.233 2.02 3.233s2.02-1.447 2.02-3.233-.905-3.232-2.02-3.232-2.02 1.447-2.02 3.232" />
  <path d="M16.727 11.877c0-.844.207-1.607.539-2.182-.739-.642-1.788-1.05-2.964-1.05-2.231 0-4.041 1.447-4.041 3.232s1.81 3.233 4.04 3.233c1.177 0 2.226-.408 2.965-1.05-.332-.575-.54-1.338-.54-2.183" />
  <path d="m22.384 10.261-1.617 1.616 1.617 1.617" />
  <path d="M7.474 13.7a13 13 0 0 1 2.848-1.337 3 3 0 0 1-.061-.486 3 3 0 0 1 .062-.485 13.5 13.5 0 0 1-2.849-1.337 9.2 9.2 0 0 1-1.707-1.382c-2.492.154-4.396 1.025-4.396 3.205s1.904 3.051 4.396 3.205a9.2 9.2 0 0 1 1.707-1.382" />
</svg>