<svg width="24" height="24" viewBox="0 0 24 24" fill="none" xmlns="http://www.w3.org/2000/svg">
  <path d="M23.143 10.286 21.428 12l1.714 1.714" stroke="#000" stroke-width="1.4545454545454546" stroke-linecap="round" stroke-linejoin="round"/>
  <path d="M17.143 12c0 1.894 0.96 3.428 2.143 3.428s2.143 -1.535 2.143 -3.428 -0.959 -3.428 -2.143 -3.428 -2.143 1.535 -2.143 3.428" stroke="#000" stroke-width="1.4545454545454546" stroke-linecap="round" stroke-linejoin="round"/>
  <path d="M17.143 12c0 -0.896 0.22 -1.705 0.572 -2.316 -0.783 -0.68 -1.896 -1.113 -3.143 -1.113 -2.367 0 -4.286 1.535 -4.286 3.428s1.919 3.428 4.286 3.428c1.247 0 2.359 -0.433 3.143 -1.113 -0.351 -0.611 -0.572 -1.42 -0.572 -2.316" stroke="#000" stroke-width="1.4545454545454546" stroke-linecap="round" stroke-linejoin="round"/>
  <path d="M14.572 8.572c0.545 0 1.058 0.095 1.537 0.246 -0.47 -1.758 -1.791 -3.728 -3.476 -5.194C9.943 1.287 5.745 -0.512 3.929 2.305c-1.36 2.109 0.084 5.681 3.401 7.761a14.327 14.327 0 0 0 3.02 1.419c0.313 -1.648 2.074 -2.914 4.221 -2.914z" stroke="#000" stroke-width="1.4545454545454546" stroke-linecap="round" stroke-linejoin="round"/>
  <path d="M14.572 15.428c0.545 0 1.058 -0.095 1.537 -0.246 -0.47 1.758 -1.791 3.728 -3.476 5.194 -2.689 2.337 -6.887 4.135 -8.703 1.319 -1.36 -2.109 0.084 -5.681 3.401 -7.761a14.327 14.327 0 0 1 3.02 -1.419c0.313 1.648 2.074 2.914 4.221 2.914z" stroke="#000" stroke-width="1.4545454545454546" stroke-linecap="round" stroke-linejoin="round"/>
  <path d="M7.33 13.933a14.327 14.327 0 0 1 3.02 -1.418c-0.032 -0.17 -0.065 -0.339 -0.065 -0.515s0.033 -0.345 0.065 -0.514a14.327 14.327 0 0 1 -3.02 -1.419 9.745 9.745 0 0 1 -1.811 -1.465c-2.644 0.164 -4.662 1.087 -4.662 3.399s2.018 3.236 4.662 3.399a9.745 9.745 0 0 1 1.811 -1.465z" stroke="#000" stroke-width="1.4545454545454546" stroke-linecap="round" stroke-linejoin="round"/>
  <path d="m15.843 8.019 3.015 -2.876h2.571l1.714 -1.714" stroke="#000" stroke-width="1.4545454545454546" stroke-linecap="round" stroke-linejoin="round"/>
  <path d="M16.286 0.857v1.714L13.927 4.929" stroke="#000" stroke-width="1.4545454545454546" stroke-linecap="round" stroke-linejoin="round"/>
  <path d="m15.843 15.981 3.015 2.876h2.571l1.714 1.714" stroke="#000" stroke-width="1.4545454545454546" stroke-linecap="round" stroke-linejoin="round"/>
  <path d="M16.286 23.143v-1.714l-2.359 -2.358" stroke="#000" stroke-width="1.4545454545454546" stroke-linecap="round" stroke-linejoin="round"/>
</svg>
