<svg
  xmlns="http://www.w3.org/2000/svg"
  width="33"
  height="33"
  viewBox="0 0 33 33"
  fill="none"
  stroke="currentColor"
  stroke-width="2"
  stroke-linecap="round"
  stroke-linejoin="round"
>
  <path d="M10.079 19.1584C11.417 18.304 12.8649 17.669 14.232 17.2071C14.1878 16.9744 14.1429 16.7423 14.1429 16.5C14.1429 16.2577 14.1878 16.0256 14.232 15.7929C12.8649 15.3303 11.441 14.6961 10.079 13.8416C9.13173 13.2471 8.30231 12.5614 7.58853 11.827C3.95411 12.0516 1.17858 13.3215 1.17858 16.5007C1.17858 19.6799 3.95411 20.9498 7.58853 21.1745C8.30231 20.4394 9.13099 19.7543 10.079 19.1599L10.079 19.1584Z" />
  <path d="M20.0357 11.7857C20.7863 11.7857 21.4913 11.9168 22.149 12.1238C21.503 9.70703 19.6873 6.99779 17.3692 4.98243C13.6722 1.76861 7.89938 -0.704179 5.40155 3.1689C3.5313 6.06966 5.51793 10.9814 10.0783 13.8409C11.441 14.6953 12.8641 15.3303 14.2313 15.7921C14.6607 13.5263 17.0834 11.785 20.035 11.785L20.0357 11.7857Z" />
  <path d="M20.0357 21.2143C20.7863 21.2143 21.4913 21.0832 22.149 20.8762C21.503 23.293 19.6873 26.0022 17.3692 28.0176C13.6722 31.2314 7.89938 33.7042 5.40155 29.8311C3.5313 26.9304 5.51793 22.0187 10.0783 19.1592C11.441 18.3047 12.8641 17.6697 14.2313 17.2079C14.6607 19.4737 17.0834 21.215 20.035 21.215L20.0357 21.2143Z" />
  <path d="M21.7837 11.0263L25.9286 7.07144L29.4643 7.07144L31.8214 4.71429" />
  <path d="M21.7837 21.9738L25.9286 25.9286L29.4643 25.9286L31.8214 28.2857" />
  <path d="M22.3929 1.17859L22.3929 3.53573L19.1503 6.77828" />
  <path d="M22.3929 31.8214L22.3929 29.4643L19.1503 26.2217" />
  <path d="M23.5714 16.5C23.5714 15.2684 23.8734 14.1561 24.3574 13.3164C23.2805 12.3809 21.7505 11.7857 20.0357 11.7857C16.7814 11.7857 14.1429 13.8961 14.1429 16.5C14.1429 19.1039 16.7814 21.2143 20.0357 21.2143C21.7505 21.2143 23.2805 20.6191 24.3574 19.6836C23.8742 18.8439 23.5714 17.7316 23.5714 16.5Z" />
  <path d="M23.5714 16.5C23.5714 19.1036 24.8906 21.2143 26.5179 21.2143C28.1451 21.2143 29.4643 19.1036 29.4643 16.5C29.4643 13.8964 28.1451 11.7857 26.5179 11.7857C24.8906 11.7857 23.5714 13.8964 23.5714 16.5Z" />
  <path d="M31.8214 14.1429L29.4643 16.5L31.8214 18.8572" />
</svg>
