<svg width="24" height="24" viewBox="0 0 24 24" fill="none" xmlns="http://www.w3.org/2000/svg">
  <path d="M14.571 15.231c-0.793 -0.7 -1.143 -1.68 -0.584 -2.877 0.409 -0.874 1.325 -1.373 2.3 -1.353 1.749 0.036 2.53 1.137 2.57 2.539 0.027 0.949 2.413 2.847 3.613 3.742a1.673 1.673 0 0 1 0.673 1.344v0.837c0 0.935 -0.768 1.693 -1.715 1.693H6c-4.045 0 -5.143 -3.94 -5.143 -5.923 0 -2.697 1.739 -5.923 6 -5.923 3.857 0 5.819 0.992 7.567 2.42" stroke="#535862" stroke-width="2" stroke-linecap="round" stroke-linejoin="round"/>
  <path d="M17.143 17.769c0.473 0 0.857 -0.379 0.857 -0.847 0 -0.467 -0.384 -0.846 -0.857 -0.846s-0.857 0.379 -0.857 0.847c0 0.467 0.383 0.846 0.857 0.846" fill="#535862"/>
  <path d="M0.857 15.231c0 -4.935 2.007 -8.09 6 -9.307 1.451 -0.443 2.571 -1.137 2.571 -2.539s-1.151 -2.539 -2.571 -2.539c-0.659 0 -1.26 0.245 -1.715 0.647" stroke="#535862" stroke-width="2" stroke-linecap="round" stroke-linejoin="round"/>
</svg>
