<svg
  xmlns="http://www.w3.org/2000/svg"
  width="24"
  height="24"
  viewBox="0 0 24 24"
  fill="none"
  stroke="currentColor"
  stroke-width="2"
  stroke-linecap="round"
  stroke-linejoin="round"
>
  <path d="M1.263 14.891c0-4.676 1.902-7.664 5.684-8.818 1.374-.419 2.436-1.076 2.436-2.404a2.42 2.42 0 0 0-4.06-1.793" />
  <path d="M14.255 14.891c-.751-.664-1.083-1.592-.553-2.726.387-.828 1.255-1.301 2.179-1.282 1.657.034 2.397 1.077 2.435 2.404.025.9 2.286 2.698 3.423 3.546a1.59 1.59 0 0 1 .637 1.273v.793a1.615 1.615 0 0 1-1.624 1.604H6.135c-3.832-.001-4.872-3.733-4.872-5.612 0-2.555 1.648-5.612 5.684-5.612 3.654 0 5.512.94 7.168 2.293" />
  <circle cx="16.692" cy="16.494" r=".807" fill="currentColor" />
</svg>
