<svg
  xmlns="http://www.w3.org/2000/svg"
  width="24"
  height="24"
  viewBox="0 0 24 24"
  fill="none"
  stroke="currentColor"
  stroke-width="2"
  stroke-linecap="round"
  stroke-linejoin="round"
>
  <path d="M9.985 2.787c0.66 -1.431 2.693 -1.431 3.353 0l1.537 3.331a1.843 1.843 0 0 0 1.459 1.06l3.643 0.433c1.566 0.185 2.194 2.119 1.037 3.189l-2.694 2.491a1.843 1.843 0 0 0 -0.557 1.714l0.715 3.6c0.307 1.545 -1.338 2.74 -2.713 1.97l-3.201 -1.792a1.843 1.843 0 0 0 -1.804 0l-3.201 1.791c-1.375 0.771 -3.02 -0.424 -2.713 -1.969l0.715 -3.6a1.843 1.843 0 0 0 -0.557 -1.714L2.309 10.8c-1.157 -1.07 -0.528 -3.004 1.036 -3.189l3.643 -0.432a1.843 1.843 0 0 0 1.46 -1.06z" />
</svg>
