<svg
  xmlns="http://www.w3.org/2000/svg"
  width="16"
  height="24"
  viewBox="0 0 16 24"
  fill="none"
  stroke="currentColor"
  stroke-width="2"
  stroke-linecap="round"
  stroke-linejoin="round"
>
  <path d="M11.693 3.796q1.588 2.829 3.176 4.041" />
  <path d="M5.342 7.029C1.836 8.326 1.406 14.345 1.371 19.15v3.233h11.909v-3.233c-0.035 -4.806 -0.464 -10.825 -3.97 -12.122" />
  <path d="m5.361 17.514 3.93 -4" />
  <path d="M7.326 18.343c1.535 0 2.779 -1.267 2.779 -2.829S8.861 12.686 7.326 12.686s-2.778 1.267 -2.778 2.829 1.244 2.829 2.778 2.829" />
  <path d="M9.311 7.029h-3.97V2.988C5.342 2.096 6.053 1.371 6.93 1.371h7.146v1.616L9.312 3.796z" />
</svg>
