<svg width="16" height="24" viewBox="0 0 16 24" fill="none" xmlns="http://www.w3.org/2000/svg">
  <path d="M9.263 6.857H5.053c-3.718 1.376 -4.173 7.76 -4.211 12.856v3.429h12.633V19.713c-0.038 -5.097 -0.493 -11.48 -4.211 -12.856" stroke="#000" stroke-width="2" stroke-linecap="round" stroke-linejoin="round"/>
  <path d="M7.158 18.857c1.627 0 2.947 -1.343 2.947 -3s-1.32 -3 -2.947 -3 -2.947 1.343 -2.947 3 1.32 3 2.947 3" stroke="#000" stroke-width="2" stroke-linecap="round" stroke-linejoin="round"/>
  <path d="m5.073 17.978 4.169 -4.242" stroke="#000" stroke-width="2" stroke-linecap="round" stroke-linejoin="round"/>
  <path d="M6.737 0.857c-0.93 0 -1.685 0.767 -1.685 1.714v4.286h4.211V3.429l5.053 -0.857V0.857z" stroke="#000" stroke-width="2" stroke-linecap="round" stroke-linejoin="round"/>
  <path d="M11.789 3.429q1.685 3.001 3.369 4.286" stroke="#000" stroke-width="2" stroke-linecap="round" stroke-linejoin="round"/>
</svg>
