<svg width="24" height="24" viewBox="0 0 24 24" fill="none" xmlns="http://www.w3.org/2000/svg">
  <path d="M10.044 2.086c0.77 -1.669 3.142 -1.669 3.912 0l1.793 3.886a2.151 2.151 0 0 0 1.702 1.237l4.251 0.505c1.826 0.216 2.559 2.472 1.209 3.72l-3.143 2.906a2.151 2.151 0 0 0 -0.65 2.001l0.834 4.199c0.358 1.803 -1.561 3.197 -3.165 2.298l-3.735 -2.091a2.151 2.151 0 0 0 -2.105 0l-3.735 2.091c-1.604 0.898 -3.523 -0.496 -3.165 -2.298l0.834 -4.199a2.151 2.151 0 0 0 -0.65 -2.001L1.089 11.434C-0.26 10.186 0.473 7.929 2.298 7.714l4.251 -0.504a2.151 2.151 0 0 0 1.702 -1.237z" fill="#000"/>
</svg>
