<svg
  xmlns="http://www.w3.org/2000/svg"
  width="24"
  height="24"
  viewBox="0 0 24 24"
  fill="none"
  stroke="currentColor"
  stroke-width="2"
  stroke-linecap="round"
  stroke-linejoin="round"
>
  <path d="M15.1212 11.8787L11.8787 15.1213C11.3161 15.6839 11 16.447 11 17.2426L11 18.5C11 19.8807 9.88072 21 8.50001 21C7.1193 21 6.00001 19.8807 6.00001 18.5L6.00001 18L5.50002 18C4.11931 18 3.00001 16.8807 3.00001 15.5C3.00001 14.1193 4.1193 13 5.5 13L6.75735 13C7.55301 13 8.31608 12.6839 8.8787 12.1213L12.1213 8.87862C12.6839 8.31603 12.9999 7.553 12.9999 6.75739L13 5.50005C13 4.11931 14.1193 3.00001 15.5 3.00001C16.8808 3.00001 18.0001 4.11927 18.0001 5.49998L18.0002 5.99986L18.5001 5.99989C19.8808 5.99996 21 7.11925 21 8.49994C21 9.88068 19.8807 11 18.4999 11L17.2426 11C16.4469 11 15.6838 11.3161 15.1212 11.8787Z"/>
</svg>
