<svg
  xmlns="http://www.w3.org/2000/svg"
  width="24"
  height="24"
  viewBox="0 0 24 24"
  fill="none"
  stroke="currentColor"
  stroke-width="2"
  stroke-linecap="round"
  stroke-linejoin="round"
>
  <rect width="512" height="512" fill="white"/>
  <path d="M156.482 401V110.091H265.573C287.922 110.091 306.672 114.258 321.823 122.591C337.069 130.924 348.575 142.383 356.34 156.966C364.2 171.455 368.13 187.932 368.13 206.398C368.13 225.053 364.2 241.625 356.34 256.114C348.48 270.602 336.88 282.013 321.539 290.347C306.198 298.585 287.306 302.705 264.863 302.705H192.562V259.381H257.761C270.829 259.381 281.53 257.108 289.863 252.562C298.196 248.017 304.352 241.767 308.329 233.812C312.401 225.858 314.437 216.72 314.437 206.398C314.437 196.076 312.401 186.985 308.329 179.125C304.352 171.265 298.149 165.157 289.721 160.801C281.388 156.35 270.639 154.125 257.477 154.125H209.181V401H156.482Z" fill="black"/>
</svg>
