<svg
  xmlns="http://www.w3.org/2000/svg"
  width="24"
  height="24"
  viewBox="0 0 24 24"
  fill="none"
  stroke="currentColor"
  stroke-width="2"
  stroke-linecap="round"
  stroke-linejoin="round"
>
  <path d="M10.184 3.93733C10.8989 2.38759 13.1014 2.38759 13.8163 3.93733L15.199 6.93515C15.4904 7.56677 16.0889 8.00165 16.7797 8.08355L20.058 8.47226C21.7528 8.6732 22.4335 10.768 21.1805 11.9267L18.7567 14.1682C18.246 14.6404 18.0174 15.3441 18.1529 16.0263L18.7963 19.2644C19.1289 20.9383 17.347 22.2329 15.8578 21.3993L12.977 19.7868C12.3701 19.4471 11.6302 19.4471 11.0233 19.7868L8.14251 21.3993C6.65328 22.2329 4.87137 20.9383 5.20397 19.2644L5.84737 16.0263C5.98293 15.3441 5.7543 14.6404 5.24362 14.1682L2.81982 11.9267C1.56682 10.768 2.24746 8.6732 3.94224 8.47226L7.22064 8.08355C7.91136 8.00165 8.50994 7.56677 8.80127 6.93515L10.184 3.93733Z"/>
</svg>
